<svg xmlns="http://www.w3.org/2000/svg" width="20" height="20" viewBox="0 0 20 20">
  <path id="cog" d="M12.108,2.4a1.917,1.917,0,0,0-3.725,0A1.915,1.915,0,0,1,5.525,3.589,1.916,1.916,0,0,0,2.892,6.222,1.916,1.916,0,0,1,1.709,9.081a1.915,1.915,0,0,0,0,3.723,1.915,1.915,0,0,1,1.184,2.859,1.916,1.916,0,0,0,2.633,2.633,1.915,1.915,0,0,1,2.859,1.184,1.915,1.915,0,0,0,3.723,0,1.916,1.916,0,0,1,2.859-1.184A1.916,1.916,0,0,0,17.6,15.662,1.916,1.916,0,0,1,18.781,12.8a1.915,1.915,0,0,0,0-3.723A1.915,1.915,0,0,1,17.6,6.222a1.916,1.916,0,0,0-2.633-2.633,1.915,1.915,0,0,1-2.859-1.184ZM10.245,14.692a3.75,3.75,0,1,0-2.652-1.1A3.75,3.75,0,0,0,10.245,14.692Z" transform="translate(-0.245 -0.942)" fill="#fff" fill-rule="evenodd"/>
</svg>
