<svg xmlns="http://www.w3.org/2000/svg" width="47" height="47" viewBox="0 0 47 47">
  <path id="placeholder" d="M17,2V4h6V2ZM28,2V4h6V2Zm-17.312.156a10.427,10.427,0,0,0-8.531,8.531l1.969.344a8.452,8.452,0,0,1,6.906-6.906Zm28.625,0-.344,1.969a8.452,8.452,0,0,1,6.906,6.906l1.969-.344A10.427,10.427,0,0,0,39.313,2.156ZM2,16v6H4V16Zm44,1v6h2V17ZM2,27v6H4V27Zm44,1v6h2V28ZM4.125,38.969l-1.969.344a10.427,10.427,0,0,0,8.531,8.531l.344-1.969A8.452,8.452,0,0,1,4.125,38.969Zm41.75,0a8.452,8.452,0,0,1-6.906,6.906l.344,1.969a10.427,10.427,0,0,0,8.531-8.531ZM16,46v2h6V46Zm11,0v2h6V46Z" transform="translate(-1.5 -1.5)" fill="#d5d800" stroke="#d5d800" stroke-width="1"/>
</svg>
